<?xml version="1.0" encoding="UTF-8" standalone="no"?>
<svg width="16px" height="16px" viewBox="0 0 16 16" version="1.1" xmlns="http://www.w3.org/2000/svg" xmlns:xlink="http://www.w3.org/1999/xlink" xmlns:sketch="http://www.bohemiancoding.com/sketch/ns">
    <title>comments</title>
    <description>Created with Sketch (http://www.bohemiancoding.com/sketch)</description>
    <defs></defs>
    <g id="Page-1" stroke="none" stroke-width="1" fill="none" fill-rule="evenodd" sketch:type="MSPage">
        <path d="M3,13 L1.99406028,13 C0.894513756,13 0,12.1033337 0,10.9972399 L0,2.00276013 C0,0.893542647 0.892771196,0 1.99406028,0 L14.0059397,0 C15.1054862,0 16,0.896666251 16,2.00276013 L16,10.9972399 C16,12.1064574 15.1072288,13 14.0059397,13 L8.60260678,13 C7.51553829,13.7775214 6.02581617,14.8421041 5.00832222,15.5654841 C3.23205566,16.8283081 3,15 3,15 L3,13 L3,13 Z M5,11 L5,13.2886353 L8,11 L5,11 Z M3.00247329,2 C2.44882258,2 2,2.4463114 2,2.99754465 L2,10.0024554 C2,10.553384 2.45576096,11 3.00247329,11 L12.9975267,11 C13.5511774,11 14,10.5536886 14,10.0024554 L14,2.99754465 C14,2.44661595 13.544239,2 12.9975267,2 L3.00247329,2 Z M4.49100518,8 C4.21983051,8 4,8.23193359 4,8.5 C4,8.77614237 4.22788048,9 4.49100518,9 L9.50899482,9 C9.78016949,9 10,8.76806641 10,8.5 C10,8.22385763 9.77211952,8 9.50899482,8 L4.49100518,8 Z M4.50043583,6 C4.22405275,6 4,6.23193359 4,6.5 C4,6.77614237 4.23079681,7 4.50043583,7 L11.4995642,7 C11.7759472,7 12,6.76806641 12,6.5 C12,6.22385763 11.7692032,6 11.4995642,6 L4.50043583,6 Z M4.50043583,4 C4.22405275,4 4,4.23193359 4,4.5 C4,4.77614237 4.23079681,5 4.50043583,5 L11.4995642,5 C11.7759472,5 12,4.76806641 12,4.5 C12,4.22385763 11.7692032,4 11.4995642,4 L4.50043583,4 Z" id="comments" fill="#6F777B" sketch:type="MSShapeGroup"></path>
    </g>
</svg>