<?xml version="1.0" encoding="UTF-8" standalone="no"?>
<svg width="16px" height="16px" viewBox="0 0 16 16" version="1.1" xmlns="http://www.w3.org/2000/svg" xmlns:xlink="http://www.w3.org/1999/xlink" xmlns:sketch="http://www.bohemiancoding.com/sketch/ns">
    <!-- Generator: Sketch 3.0.2 (7799) - http://www.bohemiancoding.com/sketch -->
    <title>Slice 1</title>
    <description>Created with Sketch.</description>
    <defs></defs>
    <g id="Page-1" stroke="none" stroke-width="1" fill="none" fill-rule="evenodd" sketch:type="MSPage">
        <path d="M8,16 C12.4182782,16 16,12.4182782 16,8 C16,3.58172178 12.4182782,0 8,0 C3.58172178,0 0,3.58172178 0,8 C0,12.4182782 3.58172178,16 8,16 Z M8,14 C11.3137087,14 14,11.3137087 14,8 C14,4.68629134 11.3137087,2 8,2 C4.68629134,2 2,4.68629134 2,8 C2,11.3137087 4.68629134,14 8,14 Z M7,4 L7,6 L9,6 L9,4 L7,4 Z M7,7 L7,12 L9,12 L9,7 L7,7 Z" id="moreinfo_icon" fill="#6F777B" sketch:type="MSShapeGroup"></path>
    </g>
</svg>