<?xml version="1.0" encoding="UTF-8" standalone="no"?>
<svg width="60px" height="60px" viewBox="0 0 60 60" version="1.1" xmlns="http://www.w3.org/2000/svg" xmlns:xlink="http://www.w3.org/1999/xlink" xmlns:sketch="http://www.bohemiancoding.com/sketch/ns">
    <title>tick</title>
    <description>Created with Sketch (http://www.bohemiancoding.com/sketch)</description>
    <defs></defs>
    <g id="User_flow" stroke="none" stroke-width="1" fill="none" fill-rule="evenodd" sketch:type="MSPage">
        <g id="7_LegalAidResults_Maybe" sketch:type="MSArtboardGroup" transform="translate(-130.000000, -238.000000)">
            <g id="tick_icon" sketch:type="MSLayerGroup" transform="translate(130.000000, 238.000000)">
                <path d="M29.9995021,0 C46.5687397,0 60,13.4294914 60,29.9990041 C60,46.5675209 46.5687397,60 29.9995021,60 C13.4322561,60 0,46.5675209 0,29.9990041 C0,13.4294914 13.4322561,0 29.9995021,0" id="Fill-1" fill="#006435" sketch:type="MSShapeGroup"></path>
                <path d="M20.8470554,39.4804725 L41.1570876,18.0570079 C42.3654085,16.734584 44.4176829,16.6401251 45.7422074,17.8464434 L46.9406805,18.9376399 C48.265205,20.1449421 48.3607283,22.1954864 47.1533922,23.5188943 L26.8423753,44.9413749 C25.6350392,46.2657668 23.5827648,46.3602256 22.2582403,45.1529234 L21.0587824,44.0607429 C19.7342579,42.8554086 19.6397193,40.8028964 20.8470554,39.4804725" id="Fill-2" fill="#FFFFFF" sketch:type="MSShapeGroup"></path>
                <path d="M27.1444219,39.6450929 L17.9110596,30.0308421 C16.691356,28.7416496 14.61874,28.6488668 13.280685,29.8247667 L12.0697843,30.8893271 C10.7317293,32.065227 10.6358745,34.064452 11.8555781,35.3546212 L21.0879622,44.9678953 C22.3076659,46.2580645 24.38126,46.3518239 25.719315,45.1749474 L26.9302157,44.110387 C28.2682707,42.9344871 28.3641255,40.9352621 27.1444219,39.6450929" id="Fill-3" fill="#FFFFFF" sketch:type="MSShapeGroup"></path>
            </g>
        </g>
    </g>
</svg>